0
SECTION
2
HEADER
9
$INSUNITS
70
4
9
$ACADVER
1
AC1014
9
$HANDSEED
5
FFFF
0
ENDSEC
0
SECTION
2
TABLES
0
TABLE
2
VPORT
5
8
100
AcDbSymbolTable
0
ENDTAB
0
TABLE
2
LTYPE
5
5
100
AcDbSymbolTable
0
LTYPE
5
14
100
AcDbSymbolTableRecord
100
AcDbLinetypeTableRecord
2
BYBLOCK
70
0
0
LTYPE
5
15
100
AcDbSymbolTableRecord
100
AcDbLinetypeTableRecord
2
BYLAYER
70
0
0
LTYPE
5
16
100
AcDbSymbolTableRecord
100
AcDbLinetypeTableRecord
2
DASHED
70
0
3
Dashed __ __ __ __ __ __ __ __ __ __ __ __ __ _
72
65
73
2
40
0.75
49
0.5
74
0
49
-0.25
74
0
0
ENDTAB
0
TABLE
2
LAYER
5
2
100
AcDbSymbolTable
70
2
0
LAYER
5
50
100
AcDbSymbolTableRecord
100
AcDbLayerTableRecord
2
0
70
0
62
7
6
CONTINUOUS
0
ENDTAB
0
TABLE
2
STYLE
5
3
100
AcDbSymbolTable
70
1
0
STYLE
5
11
100
AcDbSymbolTableRecord
100
AcDbTextStyleTableRecord
2
STANDARD
70
0
0
ENDTAB
0
TABLE
2
VIEW
5
6
100
AcDbSymbolTable
70
0
0
ENDTAB
0
TABLE
2
UCS
5
7
100
AcDbSymbolTable
70
0
0
ENDTAB
0
TABLE
2
APPID
5
9
100
AcDbSymbolTable
70
2
0
APPID
5
12
100
AcDbSymbolTableRecord
100
AcDbRegAppTableRecord
2
ACAD
70
0
0
ENDTAB
0
TABLE
2
DIMSTYLE
5
A
100
AcDbSymbolTable
70
1
0
ENDTAB
0
TABLE
2
BLOCK_RECORD
5
1
100
AcDbSymbolTable
70
1
0
BLOCK_RECORD
5
1F
100
AcDbSymbolTableRecord
100
AcDbBlockTableRecord
2
*MODEL_SPACE
0
BLOCK_RECORD
5
1B
100
AcDbSymbolTableRecord
100
AcDbBlockTableRecord
2
*PAPER_SPACE
0
ENDTAB
0
ENDSEC
0
SECTION
2
BLOCKS
0
BLOCK
5
20
100
AcDbEntity
100
AcDbBlockBegin
2
*MODEL_SPACE
0
ENDBLK
5
21
100
AcDbEntity
100
AcDbBlockEnd
0
BLOCK
5
1C
100
AcDbEntity
100
AcDbBlockBegin
2
*PAPER_SPACE
0
ENDBLK
5
1D
100
AcDbEntity
100
AcDbBlockEnd
0
ENDSEC
0
SECTION
2
ENTITIES
0
LWPOLYLINE
5
100
100
AcDbEntity
8
0
100
AcDbPolyline
90
4
70
1
43
0.0
10
-207.51650429449555
20
-55.75000028947629
42
0.99999999999999989
10
-209.0165042944956
20
-55.750000289476333
10
-209.01650429449552
20
-64.75000028947629
42
0.99999999999999989
10
-207.51650429449558
20
-64.75000028947629
0
LWPOLYLINE
5
101
100
AcDbEntity
8
0
100
AcDbPolyline
90
4
70
1
43
0.0
10
-207.51650429449555
20
-32.217000289476218
42
0.99999999999999989
10
-209.01650429449552
20
-32.217000289476374
10
-209.01650429449552
20
-41.217000289476296
42
0.99999999999999989
10
-207.51650429449555
20
-41.217000289476296
0
CIRCLE
5
102
100
AcDbEntity
8
0
100
AcDbCircle
10
-193.5165042944956
20
-78.500000289476318
30
0
40
1.0999999999999943
210
0
220
-0
230
1
0
LWPOLYLINE
5
103
100
AcDbEntity
8
0
100
AcDbPolyline
90
8
70
1
43
0.0
10
-203.54238619899559
20
-28.431731896504481
42
0.41421356237311846
10
-202.54238619899553
20
-27.431731896504481
10
-202.54238619899553
20
-21.718764098476303
42
0.41421356237308982
10
-203.54238619899553
20
-20.71876409847631
10
-205.01487641796513
20
-20.718764098476299
42
0.33493411255195199
10
-205.97647329346046
20
-21.444298346445777
10
-207.60710879464628
20
-27.157266144473947
42
0.49820128289078225
10
-206.64551191915098
20
-28.431731896504488
0
CIRCLE
5
104
100
AcDbEntity
8
0
100
AcDbCircle
10
-209.51650429449555
20
-78.500000289476304
30
0
40
1.0999999999999943
210
0
220
-0
230
1
0
LWPOLYLINE
5
105
100
AcDbEntity
8
0
100
AcDbPolyline
90
8
70
1
43
0.0
10
-197.06528099744037
20
-21.459945053373776
42
0.33945425886337904
10
-198.03120682372946
20
-20.718764098476278
10
-199.49062238999551
20
-20.71876409847631
42
0.41421356237308982
10
-200.49062238999554
20
-21.718764098476303
10
-200.49062238999554
20
-27.431731896504456
42
0.41421356237309503
10
-199.49062238999551
20
-28.43173189650447
10
-196.50042171586279
20
-28.431731896504459
42
0.49314542603129519
10
-195.53449588957369
20
-27.172912851401939
0
CIRCLE
5
106
100
AcDbEntity
8
0
100
AcDbCircle
10
-201.51650429449552
20
-18.667000289476299
30
0
40
1.1000000000000298
210
0
220
-0
230
1
0
LWPOLYLINE
5
107
100
AcDbEntity
8
0
100
AcDbPolyline
90
4
70
1
43
0.0
10
-194.01650429449549
20
-32.217000289476303
42
0.99999999999999989
10
-195.51650429449555
20
-32.217000289476339
10
-195.51650429449549
20
-41.217000289476296
42
0.99999999999999989
10
-194.01650429449552
20
-41.217000289476296
0
LWPOLYLINE
5
108
100
AcDbEntity
8
0
100
AcDbPolyline
90
4
70
1
43
0.0
10
-194.01650429449549
20
-55.75000028947629
42
0.99999999999999989
10
-195.51650429449555
20
-55.750000289476333
10
-195.51650429449549
20
-64.75000028947629
42
0.99999999999999989
10
-194.01650429449549
20
-64.75000028947629
0
LWPOLYLINE
5
109
100
AcDbEntity
8
0
100
AcDbPolyline
90
16
70
1
43
0.0
10
-211.51650429449552
20
-78.50000028947629
42
0.99999999999999989
10
-207.51650429449555
20
-78.500000289476219
10
-207.51650429449555
20
-71.983495705504467
42
-0.41421356237308637
10
-206.01650429449558
20
-70.483495705504467
10
-197.01650429449552
20
-70.483495705504481
42
-0.41421356237308293
10
-195.51650429449552
20
-71.983495705504467
10
-195.51650429449549
20
-78.500000289476304
42
0.99999999999999989
10
-191.51650429449549
20
-78.500000289476347
10
-191.51650429449546
20
-34.504160013560281
42
0.06554346281533191
10
-191.58465264191733
20
-33.986521923355227
10
-195.88179663887456
20
-17.949362199271238
42
0.33945425886338443
10
-197.81364829145269
20
-16.467000289476296
10
-205.2193602975384
20
-16.467000289476303
42
0.33945425886338593
10
-207.1512119501165
20
-17.949362199271249
10
-211.44835594707374
20
-33.986521923355227
42
0.065543462815335352
10
-211.5165042944956
20
-34.504160013560281
0
ENDSEC
0
SECTION
2
OBJECTS
0
DICTIONARY
5
C
100
AcDbDictionary
3
ACAD_GROUP
350
D
3
ACAD_MLINESTYLE
350
17
0
DICTIONARY
5
D
100
AcDbDictionary
0
DICTIONARY
5
1A
330
C
100
AcDbDictionary
0
DICTIONARY
5
17
100
AcDbDictionary
0
ENDSEC
0
EOF
