0
SECTION
2
HEADER
9
$INSUNITS
70
4
9
$ACADVER
1
AC1014
9
$HANDSEED
5
FFFF
0
ENDSEC
0
SECTION
2
TABLES
0
TABLE
2
VPORT
5
8
100
AcDbSymbolTable
0
ENDTAB
0
TABLE
2
LTYPE
5
5
100
AcDbSymbolTable
0
LTYPE
5
14
100
AcDbSymbolTableRecord
100
AcDbLinetypeTableRecord
2
BYBLOCK
70
0
0
LTYPE
5
15
100
AcDbSymbolTableRecord
100
AcDbLinetypeTableRecord
2
BYLAYER
70
0
0
LTYPE
5
16
100
AcDbSymbolTableRecord
100
AcDbLinetypeTableRecord
2
DASHED
70
0
3
Dashed __ __ __ __ __ __ __ __ __ __ __ __ __ _
72
65
73
2
40
0.75
49
0.5
74
0
49
-0.25
74
0
0
ENDTAB
0
TABLE
2
LAYER
5
2
100
AcDbSymbolTable
70
2
0
LAYER
5
50
100
AcDbSymbolTableRecord
100
AcDbLayerTableRecord
2
0
70
0
62
7
6
CONTINUOUS
0
ENDTAB
0
TABLE
2
STYLE
5
3
100
AcDbSymbolTable
70
1
0
STYLE
5
11
100
AcDbSymbolTableRecord
100
AcDbTextStyleTableRecord
2
STANDARD
70
0
0
ENDTAB
0
TABLE
2
VIEW
5
6
100
AcDbSymbolTable
70
0
0
ENDTAB
0
TABLE
2
UCS
5
7
100
AcDbSymbolTable
70
0
0
ENDTAB
0
TABLE
2
APPID
5
9
100
AcDbSymbolTable
70
2
0
APPID
5
12
100
AcDbSymbolTableRecord
100
AcDbRegAppTableRecord
2
ACAD
70
0
0
ENDTAB
0
TABLE
2
DIMSTYLE
5
A
100
AcDbSymbolTable
70
1
0
ENDTAB
0
TABLE
2
BLOCK_RECORD
5
1
100
AcDbSymbolTable
70
1
0
BLOCK_RECORD
5
1F
100
AcDbSymbolTableRecord
100
AcDbBlockTableRecord
2
*MODEL_SPACE
0
BLOCK_RECORD
5
1B
100
AcDbSymbolTableRecord
100
AcDbBlockTableRecord
2
*PAPER_SPACE
0
ENDTAB
0
ENDSEC
0
SECTION
2
BLOCKS
0
BLOCK
5
20
100
AcDbEntity
100
AcDbBlockBegin
2
*MODEL_SPACE
0
ENDBLK
5
21
100
AcDbEntity
100
AcDbBlockEnd
0
BLOCK
5
1C
100
AcDbEntity
100
AcDbBlockBegin
2
*PAPER_SPACE
0
ENDBLK
5
1D
100
AcDbEntity
100
AcDbBlockEnd
0
ENDSEC
0
SECTION
2
ENTITIES
0
LWPOLYLINE
5
100
100
AcDbEntity
8
0
100
AcDbPolyline
90
6
70
1
43
0.0
10
174.05333378702369
20
-76.761767033750274
42
0.39644165452200758
10
176.70072050621707
20
-76.052401900289382
42
-0.19978980551213413
10
176.99906811326582
20
-74.938953472466935
42
0.396441654522104
10
175.0610465275326
20
-73.000931886734179
42
-0.19978980551199743
10
173.94759809971103
20
-73.299279493782649
42
0.39644165452207836
10
173.23823296624977
20
-75.946666212976325
42
-0.19978980551215375
0
LWPOLYLINE
5
101
100
AcDbEntity
8
0
100
AcDbPolyline
90
6
70
1
43
0.0
10
173.23823296624968
20
-21.020325198032491
42
0.39644165452206009
10
173.94759809971077
20
-23.667711917226278
42
-0.19978980551209266
10
175.06104652753282
20
-23.966059524274932
42
0.39644165452211
10
176.99906811326599
20
-22.028037938541729
42
-0.19978980551205838
10
176.70072050621738
20
-20.914589510719715
42
0.39644165452206614
10
174.05333378702355
20
-20.205224377258642
42
-0.19978980551214418
0
CIRCLE
5
102
100
AcDbEntity
8
0
100
AcDbCircle
10
174.14589715116171
20
-71.812444773246156
30
0
40
0.74999999999999289
210
0
220
-0
230
1
0
CIRCLE
5
103
100
AcDbEntity
8
0
100
AcDbCircle
10
193.5165042944956
20
-78.500000289476318
30
0
40
1.0999999999999943
210
0
220
-0
230
1
0
LWPOLYLINE
5
104
100
AcDbEntity
8
0
100
AcDbPolyline
90
8
70
1
43
0.0
10
202.54238619899553
20
-27.431731896504481
42
0.41421356237310542
10
203.54238619899559
20
-28.431731896504481
10
206.64551191915098
20
-28.431731896504484
42
0.49820128289078353
10
207.60710879464628
20
-27.157266144473947
10
205.97647329346046
20
-21.444298346445777
42
0.33493411255195915
10
205.01487641796513
20
-20.718764098476299
10
203.54238619899553
20
-20.71876409847631
42
0.41421356237308854
10
202.54238619899553
20
-21.718764098476303
0
CIRCLE
5
105
100
AcDbEntity
8
0
100
AcDbCircle
10
209.51650429449555
20
-78.500000289476304
30
0
40
1.0999999999999943
210
0
220
-0
230
1
0
LWPOLYLINE
5
106
100
AcDbEntity
8
0
100
AcDbPolyline
90
4
70
1
43
0.0
10
209.01650429449552
20
-32.217000289476303
42
0.99999999999999989
10
207.51650429449555
20
-32.217000289476218
10
207.51650429449546
20
-41.217000289476324
42
0.99999999999999989
10
209.01650429449552
20
-41.217000289476296
0
LWPOLYLINE
5
107
100
AcDbEntity
8
0
100
AcDbPolyline
90
4
70
1
43
0.0
10
195.51650429449555
20
-32.217000289476289
42
0.99999999999999989
10
194.01650429449549
20
-32.217000289476303
10
194.01650429449543
20
-41.217000289476324
42
0.99999999999999989
10
195.51650429449549
20
-41.217000289476296
0
CIRCLE
5
108
100
AcDbEntity
8
0
100
AcDbCircle
10
178.18755522675403
20
-21.112888562170582
30
0
40
0.74999999999999289
210
0
220
-0
230
1
0
CIRCLE
5
109
100
AcDbEntity
8
0
100
AcDbCircle
10
219.53300543739547
20
-48.483495705504467
30
0
40
0.74999999999999289
210
0
220
-0
230
1
0
CIRCLE
5
110
100
AcDbEntity
8
0
100
AcDbCircle
10
172.66654762208435
20
-77.333452377915663
30
0
40
0.74999999999999289
210
0
220
-0
230
1
0
LWPOLYLINE
5
111
100
AcDbEntity
8
0
100
AcDbPolyline
90
4
70
1
43
0.0
10
209.0165042944956
20
-55.75000028947624
42
0.99999999999999989
10
207.51650429449555
20
-55.75000028947629
10
207.51650429449546
20
-64.750000289476318
42
0.99999999999999989
10
209.01650429449552
20
-64.75000028947629
0
CIRCLE
5
112
100
AcDbEntity
8
0
100
AcDbCircle
10
230.36646096690669
20
-77.33345237791562
30
0
40
0.74999999999999289
210
0
220
-0
230
1
0
LWPOLYLINE
5
113
100
AcDbEntity
8
0
100
AcDbPolyline
90
4
70
1
43
0.0
10
195.51650429449555
20
-55.750000289476276
42
0.99999999999999989
10
194.01650429449549
20
-55.75000028947629
10
194.01650429449543
20
-64.750000289476318
42
0.99999999999999989
10
195.51650429449549
20
-64.75000028947629
0
CIRCLE
5
114
100
AcDbEntity
8
0
100
AcDbCircle
10
201.51650429449552
20
-18.667000289476299
30
0
40
1.1000000000000298
210
0
220
-0
230
1
0
CIRCLE
5
115
100
AcDbEntity
8
0
100
AcDbCircle
10
224.84545350314463
20
-21.112888036296987
30
0
40
0.74999999999999289
210
0
220
-0
230
1
0
LWPOLYLINE
5
116
100
AcDbEntity
8
0
100
AcDbPolyline
90
6
70
1
43
0.0
10
229.79477562274181
20
-75.946666212975373
42
0.39644165452214869
10
229.08541048927867
20
-73.29927949378137
42
-0.19978980551164066
10
227.97196206145998
20
-73.000931886733497
42
0.39644165452223029
10
226.03394047572436
20
-74.938953472466508
42
-0.1997898055124574
10
226.33228808277337
20
-76.052401900290491
42
0.39644165452176833
10
228.97967480196621
20
-76.761767033751369
42
-0.1997898055125561
0
CIRCLE
5
117
100
AcDbEntity
8
0
100
AcDbCircle
10
201.51650429449552
20
-66.483495705504467
30
0
40
0.74999999999999289
210
0
220
-0
230
1
0
CIRCLE
5
118
100
AcDbEntity
8
0
100
AcDbCircle
10
183.5330057354187
20
-48.483495705504467
30
0
40
0.74999999999999289
210
0
220
-0
230
1
0
CIRCLE
5
119
100
AcDbEntity
8
0
100
AcDbCircle
10
201.51650429449552
20
-30.483495705504467
30
0
40
0.74999999999999289
210
0
220
-0
230
1
0
LWPOLYLINE
5
120
100
AcDbEntity
8
0
100
AcDbPolyline
90
8
70
1
43
0.0
10
195.51650429449552
20
-75.000000289476276
42
0.41421356237309681
10
197.01650429449552
20
-76.50000028947629
10
206.01650429449558
20
-76.500000289476276
42
0.41421356237309681
10
207.51650429449555
20
-75.000000289476276
10
207.51650429449555
20
-71.983495705504467
42
0.41421356237309681
10
206.01650429449558
20
-70.483495705504467
10
197.01650429449552
20
-70.483495705504453
42
0.41421356237308637
10
195.51650429449552
20
-71.983495705504467
0
CIRCLE
5
121
100
AcDbEntity
8
0
100
AcDbCircle
10
230.36646135187289
20
-19.633539418059598
30
0
40
0.74999999999999289
210
0
220
-0
230
1
0
CIRCLE
5
122
100
AcDbEntity
8
0
100
AcDbCircle
10
174.14589715116168
20
-25.154546637762763
30
0
40
0.74999999999999289
210
0
220
-0
230
1
0
CIRCLE
5
123
100
AcDbEntity
8
0
100
AcDbCircle
10
178.18755522675377
20
-75.854102848838295
30
0
40
0.74999999999999289
210
0
220
-0
230
1
0
CIRCLE
5
124
100
AcDbEntity
8
0
100
AcDbCircle
10
224.84545336223704
20
-75.854102848838323
30
0
40
0.74999999999999289
210
0
220
-0
230
1
0
CIRCLE
5
125
100
AcDbEntity
8
0
100
AcDbCircle
10
228.88711091195572
20
-25.154546778670237
30
0
40
0.74999999999999289
210
0
220
-0
230
1
0
CIRCLE
5
126
100
AcDbEntity
8
0
100
AcDbCircle
10
172.66654762208432
20
-19.63353903309325
30
0
40
0.74999999999999289
210
0
220
-0
230
1
0
LWPOLYLINE
5
127
100
AcDbEntity
8
0
100
AcDbPolyline
90
6
70
1
43
0.0
10
226.03394046565398
20
-22.028037608741261
42
0.39644165452221503
10
227.9719617316585
20
-23.966059514203494
42
-0.199789805511847
10
229.08541020869961
20
-23.667712090848774
42
0.39644165452216024
10
229.79477577891953
20
-21.020325488683849
42
-0.1997898055121452
10
228.97967509261863
20
-20.20522453343699
42
0.39644165452205721
10
226.33228825639608
20
-20.914589230139853
42
-0.19978980551204453
0
LWPOLYLINE
5
128
100
AcDbEntity
8
0
100
AcDbPolyline
90
8
70
1
43
0.0
10
198.03120682372946
20
-20.718764098476289
42
0.33945425886337549
10
197.06528099744037
20
-21.459945053373776
10
195.53449588957369
20
-27.17291285140195
42
0.49314542603129918
10
196.50042171586279
20
-28.431731896504459
10
199.49062238999551
20
-28.43173189650447
42
0.41421356237309503
10
200.49062238999554
20
-27.431731896504456
10
200.49062238999554
20
-21.718764098476303
42
0.41421356237308854
10
199.49062238999551
20
-20.71876409847631
0
CIRCLE
5
129
100
AcDbEntity
8
0
100
AcDbCircle
10
228.88711143782939
20
-71.812444773246057
30
0
40
0.74999999999999289
210
0
220
-0
230
1
0
LWPOLYLINE
5
130
100
AcDbEntity
8
0
100
AcDbPolyline
90
68
70
1
43
0.0
10
209.51650429449555
20
-80.50000028947629
42
0.41421356237309631
10
211.51650429449552
20
-78.50000028947629
10
211.51650429449552
20
-67.554563517369942
42
-0.66817863791930598
10
214.93071785686863
20
-66.140349954996836
10
221.95884037150972
20
-73.168472469637962
42
-0.21342179152782745
10
222.54152839293479
20
-74.693969744315908
42
0.43061471548845376
10
228.03300858899107
20
-80.500000841915579
10
231.03301098062744
20
-80.500000841915607
42
0.41421356237310336
10
233.53301098062744
20
-78.000000841915593
10
233.5330094309067
20
-75
42
0.43061471548845287
10
227.72697833330699
20
-69.508519803943713
42
-0.21342179152777277
10
226.2014810586291
20
-68.925831782518671
10
212.10229073212244
20
-54.826641456012027
42
-0.19891236737965118
10
211.51650429449552
20
-53.412427893638927
10
211.51650429449552
20
-52.483495705504481
42
-0.4142135623730937
10
213.51650429449552
20
-50.483495705504481
10
219.53300543739547
20
-50.483495705504481
42
0.99999999999999989
10
219.53300543739542
20
-46.483495705504453
10
213.51650429449552
20
-46.483495705504438
42
-0.4142135623730937
10
211.51650429449552
20
-44.483495705504453
10
211.51650429449552
20
-43.554563517369957
42
-0.19891236737965085
10
212.10229073212244
20
-42.140349954996864
10
226.20148185734024
20
-28.041158829779068
42
-0.21342176528341295
10
227.72697893152073
20
-27.458470797180642
42
0.43061468573291783
10
233.53300858899104
20
-21.966991411008941
10
233.53300858899107
20
-18.966991411008944
42
0.41421356237310386
10
231.03300858899107
20
-16.466991411008941
10
228.03300858899107
20
-16.466991411008067
42
0.43061468573294975
10
222.54152920281854
20
-22.273021068479906
42
-0.2134217652834112
10
221.95884117022013
20
-23.798518142660605
10
213.96599403727868
20
-31.791365275601994
42
-0.57735026918960086
10
210.61992882232747
20
-30.894789803433952
10
207.1512119501165
20
-17.949362199271249
42
0.33945425886339048
10
205.2193602975384
20
-16.467000289476328
10
197.81364829145269
20
-16.467000289476296
42
0.33945425886338898
10
195.88179663887456
20
-17.949362199271231
10
192.4130797666636
20
-30.894789803433945
42
-0.57735026918963472
10
189.06701455171236
20
-31.791365275602001
10
181.07416741877014
20
-23.798518142659802
42
-0.21342176528339901
10
180.4914793861717
20
-22.273021068479295
42
0.43061468573291922
10
175
20
-16.466991411008927
10
172
20
-16.466991411008944
42
0.41421356237310386
10
169.5
20
-18.966991411008934
10
169.5
20
-21.966991411008941
42
0.43061468573291772
10
175.30602965747033
20
-27.458470797180638
42
-0.21342176528341306
10
176.83152673165083
20
-28.041158829779068
10
190.93071785686863
20
-42.14034995499685
42
-0.19891236737965118
10
191.51650429449552
20
-43.554563517369957
10
191.51650429449552
20
-44.483495705504481
42
-0.41421356237309503
10
189.51650429449555
20
-46.483495705504474
10
183.5330057354187
20
-46.483495705504481
42
0.99999999999999989
10
183.5330057354187
20
-50.483495705504453
10
189.51650429449555
20
-50.483495705504467
42
-0.4142135623730937
10
191.51650429449552
20
-52.483495705504453
10
191.51650429449552
20
-53.412427893639006
42
-0.19891236737964554
10
190.93071785686863
20
-54.826641456012119
10
176.83152673165085
20
-68.925832581229869
42
-0.21342176528340448
10
175.30602965747036
20
-69.50852061382831
42
0.43061468573291972
10
169.5
20
-75
10
169.5
20
-78
42
0.41421356237309293
10
171.99999999999994
20
-80.500000000000028
10
175
20
-80.500000000000028
42
0.43061468573291872
10
180.4914793861717
20
-74.693970342529653
42
-0.21342176528340065
10
181.07416741877014
20
-73.16847326834916
10
188.10229073212244
20
-66.14034995499685
42
-0.66817863791930598
10
191.51650429449552
20
-67.554563517369957
10
191.51650429449552
20
-78.50000028947629
42
0.41421356237308854
10
193.51650429449552
20
-80.500000289476276
0
ENDSEC
0
SECTION
2
OBJECTS
0
DICTIONARY
5
C
100
AcDbDictionary
3
ACAD_GROUP
350
D
3
ACAD_MLINESTYLE
350
17
0
DICTIONARY
5
D
100
AcDbDictionary
0
DICTIONARY
5
1A
330
C
100
AcDbDictionary
0
DICTIONARY
5
17
100
AcDbDictionary
0
ENDSEC
0
EOF
